<svg width="19" height="18" viewBox="0 0 19 18" fill="none" xmlns="http://www.w3.org/2000/svg">
<path fill-rule="evenodd" clip-rule="evenodd" d="M4.25 0.75C2.59314 0.75 1.25 2.09314 1.25 3.75V14.25C1.25 15.9068 2.59314 17.25 4.25 17.25H14.75C16.4068 17.25 17.75 15.9068 17.75 14.25V3.75C17.75 2.09314 16.4068 0.75 14.75 0.75H4.25ZM7.76136 5.45455C7.76136 4.09894 8.86033 3 10.2159 3H12.3977C12.5484 3 12.6705 3.12211 12.6705 3.27273V5.45455C12.6705 5.60517 12.5484 5.72727 12.3977 5.72727H11.3068C10.8549 5.72727 10.4887 6.09359 10.4887 6.54545V7.36364H12.3977C12.4817 7.36364 12.561 7.40233 12.6127 7.46852C12.6644 7.53472 12.6827 7.62105 12.6623 7.7025L12.1168 9.88433C12.0865 10.0057 11.9774 10.0909 11.8523 10.0909H10.4887V14.7273C10.4887 14.8779 10.3666 15 10.2159 15H8.03412C7.88346 15 7.76136 14.8779 7.76136 14.7273V10.0909H6.39773C6.24711 10.0909 6.125 9.96878 6.125 9.81818V7.63635C6.125 7.48574 6.24711 7.36364 6.39773 7.36364H7.76136V5.45455Z" fill="#D2CBBE"/>
</svg>
