<svg width="19" height="18" viewBox="0 0 19 18" fill="none" xmlns="http://www.w3.org/2000/svg">
<path fill-rule="evenodd" clip-rule="evenodd" d="M4.25 0.75C2.59314 0.75 1.25 2.09314 1.25 3.75V14.25C1.25 15.9068 2.59314 17.25 4.25 17.25H14.75C16.4068 17.25 17.75 15.9068 17.75 14.25V3.75C17.75 2.09314 16.4068 0.75 14.75 0.75H4.25ZM3.875 6.75C3.875 4.88604 5.38604 3.375 7.25 3.375H11.75C13.614 3.375 15.125 4.88604 15.125 6.75V11.25C15.125 13.114 13.614 14.625 11.75 14.625H7.25C5.38604 14.625 3.875 13.114 3.875 11.25V6.75ZM7.25 4.125C5.80025 4.125 4.625 5.30025 4.625 6.75V11.25C4.625 12.6997 5.80025 13.875 7.25 13.875H11.75C13.1997 13.875 14.375 12.6997 14.375 11.25V6.75C14.375 5.30025 13.1997 4.125 11.75 4.125H7.25ZM13.25 6.125C13.25 6.47017 12.9702 6.75 12.625 6.75C12.2798 6.75 12 6.47017 12 6.125C12 5.77982 12.2798 5.5 12.625 5.5C12.9702 5.5 13.25 5.77982 13.25 6.125ZM6.625 9C6.625 7.41218 7.91218 6.125 9.5 6.125C11.0878 6.125 12.375 7.41218 12.375 9C12.375 10.5878 11.0878 11.875 9.5 11.875C7.91218 11.875 6.625 10.5878 6.625 9ZM9.5 6.875C8.3264 6.875 7.375 7.8264 7.375 9C7.375 10.1736 8.3264 11.125 9.5 11.125C10.6736 11.125 11.625 10.1736 11.625 9C11.625 7.8264 10.6736 6.875 9.5 6.875Z" fill="#D2CBBE"/>
</svg>
