<svg width="17" height="18" viewBox="0 0 17 18" fill="none" xmlns="http://www.w3.org/2000/svg">
<path fill-rule="evenodd" clip-rule="evenodd" d="M3.25 0.75C1.59314 0.75 0.25 2.09314 0.25 3.75V14.25C0.25 15.9068 1.59314 17.25 3.25 17.25H13.75C15.4068 17.25 16.75 15.9068 16.75 14.25V3.75C16.75 2.09314 15.4068 0.75 13.75 0.75H3.25ZM13.3572 7.06597C13.4299 10.0519 11.0184 16.0996 2.5 12.7933C3.62966 12.7933 5.47143 12.3802 5.92857 11.9231C5.26191 11.8279 3.92857 11.3517 3.92857 10.2088H5.07143C5.05268 10.1995 5.033 10.1896 5.01248 10.1795C4.40777 9.87915 3.07142 9.21532 3.07142 7.6374C3.35714 7.92315 3.82443 8.0397 4.21428 7.92315C3.62949 7.41426 2.32989 5.96033 3.35714 4.49455C4.21428 5.44694 6.38571 7.3517 8.21425 7.3517C7.92858 6.58979 8.21425 5.06597 9.64285 4.49455C11.0715 3.92313 12.0932 4.42987 12.5 5.06598C12.9986 5.02676 13.4462 4.76935 13.7498 4.5947C13.8167 4.55623 13.8766 4.52177 13.9286 4.49455C13.9286 4.51302 13.9286 4.53186 13.9287 4.55104C13.9301 4.95987 13.9319 5.52285 13.3442 5.92311C13.6299 6.13804 13.9286 6.22338 14.5 5.92311C14.5 6.40625 14.0491 6.87722 13.3572 7.06597Z" fill="#D2CBBE"/>
</svg>
