<svg width="17" height="18" viewBox="0 0 17 18" fill="none" xmlns="http://www.w3.org/2000/svg">
<path fill-rule="evenodd" clip-rule="evenodd" d="M3.25 0.75C1.59314 0.75 0.25 2.09314 0.25 3.75V14.25C0.25 15.9068 1.59314 17.25 3.25 17.25H13.75C15.4068 17.25 16.75 15.9068 16.75 14.25V3.75C16.75 2.09314 15.4068 0.75 13.75 0.75H3.25ZM4.15341 5.93182C4.85945 5.93182 5.43182 5.35945 5.43182 4.65341C5.43182 3.94736 4.85945 3.375 4.15341 3.375C3.44736 3.375 2.875 3.94736 2.875 4.65341C2.875 5.35945 3.44736 5.93182 4.15341 5.93182ZM5.43182 14.625V6.95455H2.875V14.625H5.43182ZM8.75568 6.95455H6.45455V14.625H8.75568V9.9978C9.05215 9.5157 9.5635 9 10.2898 9C11.3125 9 11.5682 10.0227 11.5682 10.5341V14.625H14.125V10.5341C14.125 9.1638 13.5269 6.95455 11.3125 6.95455C9.90407 6.95455 9.12205 7.46838 8.75568 7.9497V6.95455Z" fill="#D2CBBE"/>
</svg>
